<?xml version="1.0" encoding="UTF-8"?>
<svg width="50px" height="50px" viewBox="0 0 50 50" version="1.1" xmlns="http://www.w3.org/2000/svg" xmlns:xlink="http://www.w3.org/1999/xlink">
    <!-- Generator: Sketch 53.2 (72643) - https://sketchapp.com -->
    <title>Image placeholder</title>
    <desc>Created with Sketch.</desc>
    <defs>
        <path d="M32,22.8 C34.6512583,22.8 36.8,20.6512583 36.8,18 C36.8,15.3487417 34.6512583,13.2 32,13.2 C29.3487417,13.2 27.2,15.3487417 27.2,18 C27.2,20.6512583 29.3487417,22.8 32,22.8 Z M32,25.2 C28.0232583,25.2 24.8,21.9767417 24.8,18 C24.8,14.0232583 28.0232583,10.8 32,10.8 C35.9767417,10.8 39.2,14.0232583 39.2,18 C39.2,21.9767417 35.9767417,25.2 32,25.2 Z M18.2632758,43.1335607 L1.17274501,26.8692808 C0.692654457,26.4124005 0.673838844,25.6528356 1.13071916,25.172745 C1.58759947,24.6926545 2.34716444,24.6738388 2.82725499,25.1307192 L18.2633574,39.8205549 L26.7056015,31.7872485 L42.8272897,47.1307522 C43.307362,47.5876517 43.3261473,48.3472174 42.8692478,48.8272897 C42.4123483,49.307362 41.6527826,49.3261473 41.1727103,48.8692478 L26.7054537,35.1003172 L18.2632758,43.1335607 Z" id="path-1"></path>
        <path d="M8,2.4 C4.9072054,2.4 2.4,4.9072054 2.4,8 L2.4,42 C2.4,45.0927946 4.9072054,47.6 8,47.6 L42,47.6 C45.0927946,47.6 47.6,45.0927946 47.6,42 L47.6,8 C47.6,4.9072054 45.0927946,2.4 42,2.4 L8,2.4 Z M8,0 L42,0 C46.418278,-8.11624501e-16 50,3.581722 50,8 L50,42 C50,46.418278 46.418278,50 42,50 L8,50 C3.581722,50 5.41083001e-16,46.418278 0,42 L0,8 C-5.41083001e-16,3.581722 3.581722,8.11624501e-16 8,0 Z" id="path-3"></path>
    </defs>
    <g id="📱-Individual-Screens" stroke="none" stroke-width="1" fill="none" fill-rule="evenodd">
        <g id="Walkthrough-9" transform="translate(-163.000000, -243.000000)">
            <g id="Illustration" transform="translate(103.000000, 96.000000)">
                <g id="Image-placeholder" transform="translate(60.000000, 147.000000)">
                    <mask id="mask-2" fill="#ffffff">
                        <use xlink:href="#path-1"></use>
                    </mask>
                    <use id="Icon-Shape" fill="#ffffff" fill-rule="nonzero" xlink:href="#path-1"></use>
                    <g id="UI/Colors/Dark-Grey" mask="url(#mask-2)" fill="#ffffff">
                        <rect id="Color" x="0" y="0" width="50" height="50"></rect>
                    </g>
                    <mask id="mask-4" fill="#ffffff">
                        <use xlink:href="#path-3"></use>
                    </mask>
                    <use id="Icon-Shape" fill="#ffffff" fill-rule="nonzero" xlink:href="#path-3"></use>
                    <g id="UI/Colors/Dark-Grey" mask="url(#mask-4)" fill="#ffffff">
                        <rect id="Color" x="0" y="0" width="50" height="50"></rect>
                    </g>
                </g>
            </g>
        </g>
    </g>
</svg>