<?xml version="1.0" encoding="iso-8859-1"?>
<!DOCTYPE svg PUBLIC "-//W3C//DTD SVG 1.1//EN" "http://www.w3.org/Graphics/SVG/1.1/DTD/svg11.dtd">
<svg 
 version="1.1" xmlns="http://www.w3.org/2000/svg" xmlns:xlink="http://www.w3.org/1999/xlink" x="0px" y="0px" width="512px"
	 height="512px" viewBox="0 0 512 512" enable-background="new 0 0 512 512" xml:space="preserve"
><g id="2069a460dcf28295e231f3111e04c409"><g></g><g fill="#ffffff"><path display="inline" d="M256,0.5C114.893,0.5,0.5,114.893,0.5,256S114.893,511.5,256,511.5S511.5,397.107,511.5,256
		S397.107,0.5,256,0.5z M256,468.917c-117.404,0-212.917-95.514-212.917-212.917c0-117.404,95.513-212.917,212.917-212.917
		c117.403,0,212.917,95.513,212.917,212.917C468.917,373.403,373.403,468.917,256,468.917z M396.767,332.791
		c19.457,36.953-46.817,15.582-104.566,34.808c-57.75,19.221-94.84,53.283-104.566,34.807
		c-5.377-10.205,57.997-41.02,115.748-60.245C361.136,322.936,387.035,314.315,396.767,332.791z M234.708,202.771
		c0-41.155,33.368-74.521,74.521-74.521c41.152,0,74.521,33.366,74.521,74.521c0,41.155-33.368,74.521-74.521,74.521
		C268.076,277.292,234.708,243.926,234.708,202.771z M160.188,256c-29.396,0-53.229-23.833-53.229-53.229
		c0-29.397,23.833-53.229,53.229-53.229s53.229,23.833,53.229,53.229C213.417,232.167,189.584,256,160.188,256z"></path></g></g></svg>